<svg xmlns="http://www.w3.org/2000/svg" viewBox="0 0 32 32" fill="none" stroke="#ffffff" stroke-width="2.1" stroke-linecap="round" stroke-linejoin="round" role="img" aria-labelledby="icon-mobs-elite-mob-drake-elite">
  <title id="icon-mobs-elite-mob-drake-elite">mob drake elite</title>
  <path d="M7 13 5 7l6 3 5-5 4 5 7-2-3 7 2 6-9 7-9-5z"/><path d="M15 11c3 0 5 2 6 5l5 2-5 3-7-2"/><circle cx="13" cy="15" r="1.2" fill="#ffffff" stroke="none"/><path d="M8 12 4 10M19 9l4-4M13 23l-2 4"/><path d="M25 2l1.5 4.5L31 8l-4.5 1.5L25 14l-1.5-4.5L19 8l4.5-1.5z" fill="#ffffff" stroke="none"/><path d="M24 17l4 3"/>
</svg>
