<svg xmlns="http://www.w3.org/2000/svg" viewBox="0 0 32 32" fill="none" stroke="#ffffff" stroke-width="2.1" stroke-linecap="round" stroke-linejoin="round" role="img" aria-labelledby="icon-mobs-elite-mob-demon-elite">
  <title id="icon-mobs-elite-mob-demon-elite">mob demon elite</title>
  <path d="M8 12 4 4l8 4c2-2 6-2 8 0l8-4-4 8 1 8-9 8-9-8z"/><path d="M10 16l4 2 2-2 2 2 4-2M12 22l4 2 4-2"/><circle cx="12" cy="16" r="1.2" fill="#ffffff" stroke="none"/><circle cx="20" cy="16" r="1.2" fill="#ffffff" stroke="none"/><path d="M25 2l1.5 4.5L31 8l-4.5 1.5L25 14l-1.5-4.5L19 8l4.5-1.5z" fill="#ffffff" stroke="none"/><path d="M24 17l4 3"/>
</svg>
