<svg xmlns="http://www.w3.org/2000/svg" width="100" height="100" viewBox="-0.435 0.565 35.870 35.870"><path fill="#fcfdfc" d="M30.8 3.15 C30.513 3.45 30.125 3.913 29.925 4.188 C29.725 4.462 29.438 4.825 29.288 5 C29.125 5.175 29 5.35 29 5.4 C29 5.45 28.825 5.688 28.613 5.938 C28.375 6.2 28.2 6.563 28.163 6.862 C28.125 7.15 28.15 7.375 28.238 7.425 C28.313 7.475 28.638 7.362 28.95 7.162 C29.613 6.762 32.225 4.2 32.5 3.7 L32.675 3.35 L32.275 2.987 C32.05 2.788 31.738 2.625 31.588 2.625 C31.413 2.625 31.1 2.837 30.8 3.15 Z M2.3 2.9 C2.15 2.962 1.975 3.15 1.913 3.3 C1.75 3.65 1.925 4.288 2.288 4.6 C3.338 5.563 4.813 6.775 5.138 6.95 C5.35 7.05 5.6 7.112 5.7 7.075 C5.938 6.987 5.925 6.325 5.688 6.125 C5.588 6.037 5.075 5.325 4.55 4.538 L3.588 3.1 L3.175 2.925 C2.95 2.825 2.713 2.75 2.663 2.762 C2.613 2.762 2.438 2.825 2.3 2.9 Z M8.425 3.413 C8.388 3.512 8.688 4.788 9.075 6.262 C9.475 7.737 9.825 9.287 9.85 9.712 L9.9 10.475 L9.638 10.737 C9.5 10.875 9.188 11.037 8.95 11.1 L8.5 11.225 L7.6 11.037 C7.1 10.938 6.263 10.712 5.75 10.55 C5.238 10.387 4.7 10.25 4.563 10.25 C4.425 10.25 4.237 10.3 4.138 10.362 L3.95 10.475 L4.112 10.987 C4.188 11.275 4.588 11.875 4.975 12.337 C5.713 13.2 6.35 14.1 6.688 14.75 C6.788 14.95 6.875 15.337 6.875 15.625 C6.875 15.912 6.788 16.3 6.688 16.487 C6.588 16.688 6.225 17.025 5.875 17.25 C5.538 17.475 4.9 17.762 4.463 17.9 C4.038 18.025 3.563 18.225 3.413 18.325 C3.25 18.425 3.125 18.587 3.125 18.675 C3.125 18.762 3.238 18.988 3.388 19.175 C3.55 19.375 3.9 19.575 4.35 19.7 C4.737 19.813 5.263 20.012 5.513 20.137 C6 20.375 6.875 21.288 6.875 21.538 C6.875 21.612 6.763 21.913 6.638 22.188 C6.438 22.637 4.963 24.337 3.138 26.237 C2.775 26.612 2.4 27.075 2.313 27.25 L2.138 27.587 L2.288 27.737 C2.363 27.813 2.588 27.875 2.788 27.875 C2.988 27.875 3.638 27.712 4.225 27.512 C4.825 27.3 6.013 26.938 6.863 26.688 C7.813 26.413 8.537 26.262 8.725 26.313 C8.9 26.35 9.188 26.55 9.388 26.75 L9.75 27.1 L9.75 27.612 C9.75 27.887 9.575 28.775 9.375 29.587 C9.138 30.462 9 31.288 9.025 31.625 L9.063 32.188 L9.375 32.225 L9.688 32.263 L10.813 31.25 C11.438 30.688 12.313 30.012 12.763 29.75 L13.575 29.25 L14.1 29.25 L14.613 29.25 L15.063 29.65 C15.313 29.863 15.613 30.238 15.75 30.488 C15.875 30.738 16.075 31.262 16.188 31.65 C16.3 32.038 16.5 32.5 16.637 32.675 C16.8 32.888 17.012 33 17.25 33 L17.6 33 L17.8 32.462 C17.9 32.175 18.05 31.712 18.137 31.438 C18.338 30.712 18.975 29.775 19.388 29.563 C19.575 29.462 19.9 29.375 20.113 29.375 L20.488 29.375 L21.025 29.85 C21.325 30.1 21.813 30.6 22.125 30.938 C22.863 31.75 23.9 32.987 24.15 33.337 C24.425 33.763 25.375 34.4 25.588 34.325 L25.775 34.25 L25.713 33.587 C25.675 33.237 25.363 31.837 25.013 30.5 C24.663 29.163 24.375 27.95 24.375 27.813 C24.375 27.4 24.85 26.75 25.3 26.563 L25.713 26.387 L26.888 26.637 C27.538 26.762 28.35 26.962 28.713 27.063 C29.063 27.163 29.513 27.25 29.713 27.25 C29.913 27.25 30.138 27.188 30.225 27.1 C30.313 27.012 30.375 26.825 30.375 26.675 C30.375 26.525 30.125 26.125 29.838 25.8 C28.6 24.413 27.613 22.813 27.525 22.025 L27.463 21.487 L28.15 20.825 L28.838 20.162 L29.7 19.875 C30.563 19.587 31.25 19.063 31.25 18.7 C31.25 18.6 31.163 18.438 31.063 18.337 C30.963 18.225 30.588 18.05 30.225 17.925 C29.438 17.675 28.563 17.2 28.1 16.775 C27.925 16.612 27.738 16.287 27.7 16.063 C27.55 15.25 27.963 14.65 30.413 12.15 C31.1 11.45 31.7 10.875 31.763 10.875 C31.9 10.875 32.288 9.787 32.188 9.637 C32.15 9.563 31.975 9.5 31.8 9.5 C31.638 9.5 30.388 9.862 29.013 10.313 C27.525 10.8 26.3 11.137 25.95 11.15 C25.613 11.15 25.25 11.075 25.063 10.95 C24.888 10.837 24.688 10.6 24.625 10.425 C24.55 10.25 24.5 9.938 24.5 9.737 C24.5 9.537 24.65 8.762 24.838 8.025 C25.013 7.287 25.163 6.35 25.175 5.938 L25.188 5.188 L24.8 5.15 L24.4 5.112 L23.988 5.537 C23.125 6.4 21.425 7.85 21.038 8.05 C20.813 8.162 20.438 8.25 20.188 8.25 C19.938 8.25 19.588 8.175 19.4 8.075 C19.213 7.975 18.875 7.625 18.663 7.287 C18.45 6.962 18.175 6.35 18.063 5.938 C17.95 5.525 17.775 5.063 17.675 4.9 C17.575 4.75 17.375 4.625 17.213 4.625 C17.05 4.625 16.8 4.737 16.65 4.875 C16.5 5.012 16.325 5.362 16.25 5.662 C15.975 6.737 15.7 7.325 15.25 7.775 C14.95 8.075 14.663 8.25 14.463 8.25 C14.3 8.25 13.963 8.175 13.738 8.075 C13.3 7.887 11.55 6.2 10.875 5.313 C10.675 5.037 10.3 4.538 10.05 4.212 C9.6 3.625 9.075 3.25 8.688 3.25 C8.575 3.25 8.463 3.325 8.425 3.413 Z M17.725 11.85 C17.838 11.975 18.063 12.237 18.213 12.412 L18.5 12.75 L19.012 12.75 L19.525 12.75 L19.9 12.438 C20.113 12.262 20.425 12.125 20.638 12.125 L21 12.125 L21.188 12.425 C21.313 12.612 21.35 12.85 21.313 13.037 C21.263 13.2 21.313 13.537 21.413 13.787 C21.525 14.025 21.725 14.3 21.888 14.375 L22.163 14.525 L23 14.45 L23.838 14.362 L24 14.563 C24.25 14.862 24.063 15.612 23.613 16.075 L23.213 16.487 L23.288 17 L23.35 17.525 L23.863 17.962 L24.375 18.4 L24.375 18.787 L24.375 19.175 L23.75 19.75 C23.338 20.125 23.125 20.425 23.125 20.625 C23.125 20.787 23.3 21.212 23.5 21.587 C23.713 21.95 23.875 22.35 23.875 22.475 C23.875 22.6 23.813 22.762 23.725 22.85 C23.638 22.938 23.375 23 23.138 23 C22.45 23 21.775 23.225 21.563 23.538 L21.375 23.8 L21.375 24.688 C21.375 25.212 21.313 25.637 21.225 25.725 C21.138 25.813 20.975 25.875 20.85 25.875 C20.725 25.875 20.413 25.675 20.138 25.438 C19.875 25.2 19.488 24.962 19.275 24.925 C19.063 24.875 18.75 24.875 18.588 24.925 C18.425 24.962 18.15 25.2 17.988 25.438 C17.825 25.688 17.563 25.913 17.413 25.95 C17.275 25.987 17.012 25.95 16.85 25.875 C16.7 25.788 16.387 25.525 16.175 25.275 L15.8 24.837 L15.413 24.85 C15.2 24.85 14.713 25 14.338 25.175 C13.975 25.35 13.575 25.5 13.463 25.5 C13.35 25.5 13.2 25.387 13.125 25.25 C13.05 25.112 12.95 24.7 12.913 24.35 L12.838 23.7 L12.55 23.413 L12.263 23.125 L11.338 23.125 C10.8 23.125 10.363 23.063 10.275 22.975 C10.05 22.75 10.1 22.313 10.388 22.05 C10.738 21.737 11.125 20.962 11.125 20.587 C11.125 20.425 10.963 20.137 10.738 19.925 C10.3 19.512 10 19 10 18.662 C10 18.55 10.238 18.212 10.525 17.912 L11.038 17.387 L11.05 16.85 L11.063 16.313 L10.788 15.912 C10.625 15.7 10.5 15.412 10.5 15.275 C10.5 15.137 10.575 14.962 10.663 14.887 C10.763 14.813 11.188 14.688 11.625 14.6 L12.413 14.438 L12.663 14.1 L12.913 13.775 L12.888 13.05 C12.875 12.587 12.95 12.225 13.063 12.037 C13.175 11.875 13.338 11.75 13.438 11.75 C13.538 11.75 13.975 11.975 14.4 12.25 C14.838 12.525 15.313 12.75 15.475 12.75 C15.65 12.75 15.963 12.537 16.288 12.188 L16.838 11.625 L17.163 11.625 C17.35 11.625 17.6 11.725 17.725 11.85 Z M4.95 30.525 C4.688 30.75 3.875 31.512 3.15 32.2 L1.85 33.475 L1.825 33.975 L1.813 34.475 L2.063 34.75 L2.313 35.025 L2.675 34.95 C2.888 34.9 3.188 34.75 3.35 34.6 C3.513 34.438 3.763 34.125 3.9 33.875 C4.05 33.638 4.338 33.237 4.55 32.987 C4.763 32.737 5.05 32.35 5.188 32.125 C5.325 31.9 5.563 31.512 5.725 31.262 C6.063 30.725 6.05 30.2 5.688 30.15 C5.55 30.137 5.213 30.3 4.95 30.525 Z M28.375 30.712 C28.375 31.012 29.225 32.487 29.713 33.038 C29.938 33.288 30.125 33.55 30.125 33.612 C30.125 33.663 30.4 34 30.738 34.362 C31.063 34.712 31.438 35 31.55 35 C31.663 35 31.863 34.888 32 34.75 L32.25 34.5 L32.25 33.962 L32.25 33.413 L31.513 32.737 C30.225 31.563 29.575 31.038 29.288 30.95 C29.15 30.9 28.95 30.788 28.875 30.688 C28.788 30.587 28.638 30.5 28.55 30.5 C28.45 30.5 28.375 30.587 28.375 30.712 Z"/></svg>
