<svg xmlns="http://www.w3.org/2000/svg" width="100" height="100" viewBox="-3.348 0.652 33.696 33.696"><path fill="#fafbfa" d="M11.938 2.175 L11.7 2.35 L11.675 3.95 L11.663 5.563 L11.213 6.887 C10.763 8.2 10.15 9.337 9.3 10.475 C9.05 10.8 7.988 12.012 6.938 13.188 C5.888 14.35 4.863 15.512 4.663 15.75 C4.45 15.988 4.025 16.613 3.725 17.125 L3.15 18.063 L2.763 19.55 L2.375 21.038 L2.375 22.4 L2.375 23.762 L2.175 24.137 C2.075 24.35 1.95 24.788 1.913 25.112 C1.875 25.438 1.913 26.012 1.988 26.375 C2.063 26.75 2.363 27.538 2.65 28.125 C2.925 28.712 3.413 29.525 3.725 29.938 C4.612 31.137 6.563 32.763 7.388 33 C7.613 33.063 7.925 33.087 8.088 33.05 L8.375 32.975 L8.375 32.65 C8.375 32.475 8.3 32.237 8.2 32.138 C8.1 32.025 7.838 31.462 7.625 30.875 L7.225 29.813 L7.213 28.813 L7.2 27.813 L7.625 26.625 C8.013 25.512 8.75 24.2 9.488 23.3 C11 21.45 11.6 20.45 11.775 19.5 C11.963 18.512 12.163 17.988 12.4 17.825 L12.613 17.7 L13.163 17.962 L13.725 18.238 L14.263 19.337 L14.813 20.438 L14.8 21.938 L14.8 23.438 L14.525 24.438 L14.263 25.438 L14.388 26 C14.463 26.313 14.613 26.663 14.725 26.788 C15.05 27.15 15.563 27.375 16.038 27.375 C16.288 27.375 16.675 27.238 17.012 27.012 C17.313 26.8 17.7 26.5 17.863 26.325 C18.038 26.15 18.3 26 18.463 26 L18.762 26 L19 26.525 C19.338 27.313 19.538 28.575 19.438 29.438 C19.338 30.3 18.938 31.538 18.613 32.025 C18.475 32.2 18.375 32.462 18.375 32.6 C18.375 32.75 18.488 32.888 18.625 32.938 C19 33.063 19.65 32.888 20 32.575 C20.175 32.425 20.55 32.138 20.85 31.938 C21.488 31.512 22.675 30.275 23.238 29.438 C23.988 28.313 24.638 26.862 24.9 25.7 L25.15 24.563 L25.088 22.563 L25.025 20.563 L24.775 19.75 C24.075 17.488 22.713 14.65 22.113 14.212 C21.638 13.862 21.288 14.025 21.113 14.662 C20.813 15.8 20.588 16.25 20.163 16.637 L19.713 17.025 L19.213 16.962 C18.95 16.925 18.588 16.775 18.425 16.613 C18.262 16.462 18.075 16.162 18.012 15.95 C17.95 15.737 17.863 14.575 17.813 13.375 C17.762 12.175 17.65 10.787 17.55 10.313 C17.1 8.063 16.438 6.5 15.2 4.725 C14.538 3.787 12.7 2 12.388 2 C12.275 2 12.063 2.075 11.938 2.175 Z"/></svg>
