<svg xmlns="http://www.w3.org/2000/svg" width="100" height="100" viewBox="0.478 0.478 38.043 38.043"><path fill="#f7f8f7" d="M18.663 2.65 C18.512 2.813 18.338 3.163 18.262 3.438 C18.075 4.188 17.963 5.675 18.05 6.188 L18.137 6.65 L18.6 6.837 C19.125 7.05 19.863 7 20.313 6.7 L20.625 6.5 L20.625 5.938 C20.625 5.362 20.1 3.325 19.788 2.712 L19.613 2.375 L19.263 2.375 C19.063 2.375 18.813 2.487 18.663 2.65 Z M10.3 5.712 C10.175 5.837 9.913 6.3 9.713 6.75 C9.463 7.287 9.325 7.837 9.275 8.4 L9.213 9.225 L9.55 9.563 L9.875 9.887 L10.275 9.85 L10.688 9.813 L10.963 9.325 C11.113 9.05 11.275 8.55 11.313 8.212 C11.363 7.875 11.363 7.237 11.313 6.788 L11.225 5.975 L10.988 5.737 C10.863 5.612 10.7 5.5 10.638 5.5 C10.575 5.5 10.425 5.6 10.3 5.712 Z M27.3 5.813 C27.263 5.975 27.263 6.7 27.3 7.412 L27.363 8.7 L27.688 9.287 C27.863 9.6 28.125 9.9 28.263 9.938 C28.55 10.037 28.988 9.912 29.288 9.65 C29.4 9.55 29.5 9.287 29.5 9.087 C29.5 8.65 29.05 6.962 28.813 6.487 C28.638 6.163 27.788 5.5 27.525 5.5 C27.45 5.5 27.35 5.637 27.3 5.813 Z M18.3 8.05 C18.1 8.137 17.725 8.45 17.488 8.725 C17.25 9 16.875 9.587 16.65 10.025 L16.25 10.825 L16.175 11.625 C16.063 12.85 16.275 13.825 16.875 14.887 L17.4 15.813 L17.975 16.25 L18.563 16.688 L19.463 16.688 L20.375 16.688 L21.063 16 L21.763 15.3 L22.063 14.387 L22.375 13.475 L22.375 12.4 L22.375 11.313 L22.113 10.412 L21.85 9.512 L21.2 8.813 C20.525 8.075 20.075 7.875 19.188 7.875 C18.913 7.887 18.512 7.962 18.3 8.05 Z M10.188 10.912 C9.988 11 9.7 11.125 9.55 11.212 C9.4 11.3 9.05 11.837 8.75 12.412 L8.225 13.462 L8.275 14.887 L8.325 16.313 L8.725 17.1 C8.95 17.525 9.325 18.1 9.563 18.362 C9.813 18.625 10.325 19 10.725 19.188 C11.113 19.375 11.65 19.537 11.913 19.537 L12.4 19.537 L12.913 19.162 C13.2 18.962 13.563 18.612 13.713 18.375 C14.15 17.75 14.5 16.45 14.5 15.537 L14.5 14.737 L14.125 13.587 L13.738 12.438 L13.088 11.737 L12.438 11.037 L11.775 10.887 C11.413 10.813 10.988 10.75 10.838 10.762 C10.688 10.762 10.4 10.837 10.188 10.912 Z M26.563 11.05 C26.363 11.15 25.963 11.5 25.688 11.825 C25.413 12.162 24.963 12.9 24.7 13.462 L24.225 14.5 L24.275 15.787 L24.313 17.075 L24.813 17.938 L25.313 18.8 L26 19.212 C26.375 19.438 26.85 19.625 27.05 19.625 C27.25 19.625 27.7 19.45 28.063 19.25 C28.425 19.037 28.975 18.563 29.3 18.175 L29.875 17.475 L30.2 16.45 C30.4 15.813 30.525 15.137 30.538 14.625 L30.55 13.813 L30.25 12.938 L29.963 12.063 L29.375 11.462 L28.788 10.875 L27.863 10.875 C27.35 10.887 26.775 10.962 26.563 11.05 Z M34.138 13.462 C33.962 14.075 33.962 15.85 34.125 16.337 C34.2 16.55 34.4 16.775 34.575 16.862 C34.75 16.938 35.05 17 35.238 17 C35.425 17 35.688 16.887 35.813 16.75 L36.038 16.5 L35.95 15.725 L35.875 14.95 L35.337 14.012 L34.813 13.063 L34.538 13.025 L34.263 12.987 L34.138 13.462 Z M3.463 13.688 C3.35 13.787 3.2 14.087 3.113 14.337 C2.888 14.975 2.888 16.4 3.113 16.662 C3.3 16.9 3.888 16.938 4.25 16.75 C4.612 16.55 4.788 15.825 4.7 14.837 C4.663 14.362 4.563 13.875 4.487 13.737 C4.413 13.587 4.237 13.5 4 13.5 C3.8 13.5 3.563 13.587 3.463 13.688 Z M3.488 18.587 C3.138 18.912 2.725 19.412 2.588 19.688 L2.313 20.188 L2.325 21.25 L2.337 22.313 L2.75 23.3 C3.025 23.938 3.4 24.525 3.788 24.962 C4.138 25.337 4.625 25.75 4.888 25.887 C5.538 26.212 6.425 26.2 7.063 25.837 C7.325 25.688 7.713 25.337 7.9 25.063 C8.088 24.788 8.338 24.175 8.45 23.712 L8.662 22.863 L8.475 21.887 C8.363 21.337 8.125 20.563 7.938 20.15 L7.6 19.387 L7.013 18.9 C6.7 18.637 6.263 18.325 6.038 18.212 C5.8 18.075 5.338 18 4.875 18 L4.112 18 L3.488 18.587 Z M33.3 18.112 C33.087 18.162 32.837 18.262 32.738 18.313 C32.638 18.375 32.288 18.637 31.938 18.887 L31.313 19.362 L30.775 20.412 L30.225 21.462 L30.275 22.887 L30.313 24.313 L30.813 25.025 C31.088 25.413 31.438 25.8 31.6 25.862 C32.125 26.112 32.863 26.163 33.475 26 L34.063 25.837 L34.975 24.9 L35.875 23.962 L36.125 23.15 C36.263 22.712 36.413 22.05 36.45 21.7 L36.513 21.063 L36.263 20.137 L36.013 19.212 L35.462 18.65 L34.9 18.087 L34.288 18.05 C33.962 18.025 33.513 18.063 33.3 18.112 Z M18.188 19.125 C17.775 19.175 17.3 19.25 17.125 19.313 C16.95 19.362 16.413 19.587 15.925 19.825 L15.038 20.238 L14.238 21.1 C13.813 21.587 13.275 22.287 13.075 22.65 C12.05 24.475 11.538 25.188 10.725 26 C10.225 26.487 9.525 27.05 9.162 27.25 C8.8 27.462 8.175 27.8 7.788 28.025 C7.388 28.237 6.875 28.575 6.638 28.762 C6.088 29.212 5.288 30.413 5.113 31.05 C5.038 31.325 5 31.962 5.025 32.45 L5.088 33.337 L5.5 34.075 C5.738 34.475 6.213 35.1 6.563 35.438 C6.9 35.788 7.45 36.225 7.788 36.413 C8.113 36.612 8.838 36.875 9.412 37.025 L10.438 37.288 L11.625 37.212 C12.275 37.175 13.375 36.987 14.063 36.8 C16.1 36.263 17.25 36.025 18.425 35.875 L19.538 35.737 L20.988 35.875 C22.4 36 23 36.138 25.313 36.813 L26.438 37.138 L27.75 37.212 L29.075 37.288 L29.75 37.087 C30.125 36.975 30.75 36.688 31.125 36.45 C31.5 36.212 32.063 35.712 32.35 35.35 C32.65 34.975 33.1 34.2 33.337 33.625 L33.775 32.563 L33.712 32 C33.675 31.688 33.45 31.012 33.212 30.487 L32.775 29.538 L32.138 28.938 C31.775 28.6 31.163 28.15 30.775 27.938 C29.625 27.313 28.988 26.875 28.138 26.137 C27.313 25.413 26.638 24.538 26.025 23.375 C25.4 22.212 24.763 21.337 24.088 20.738 C23.725 20.425 23.075 19.975 22.638 19.762 C22.2 19.537 21.475 19.275 21.013 19.175 C20.138 19 19.413 18.975 18.188 19.125 Z"/></svg>
